<svg width="256" height="256" viewBox="0 0 24 24" xmlns="http://www.w3.org/2000/svg"><rect x="0" y="0" width="24" height="24" rx="8" fill="none"/><svg xmlns="http://www.w3.org/2000/svg" viewBox="0 0 24 24" fill="#000000" x="0" y="0" width="24" height="24"><path fill="#000000" d="M8.75 13A2.25 2.25 0 0 1 11 15.25v3.5A2.25 2.25 0 0 1 8.75 21h-3.5A2.25 2.25 0 0 1 3 18.75v-3.5A2.25 2.25 0 0 1 5.25 13zm10-10A2.25 2.25 0 0 1 21 5.25v3.5A2.25 2.25 0 0 1 18.75 11h-3.5A2.25 2.25 0 0 1 13 8.75v-3.5A2.25 2.25 0 0 1 15.25 3z" class="duoicon-secondary-layer" opacity=".3"/><path fill="#000000" d="M8.75 3A2.25 2.25 0 0 1 11 5.25v3.5A2.25 2.25 0 0 1 8.75 11h-3.5A2.25 2.25 0 0 1 3 8.75v-3.5A2.25 2.25 0 0 1 5.25 3z" class="duoicon-primary-layer"/><path fill="#000000" d="M18.75 13A2.25 2.25 0 0 1 21 15.25v3.5A2.25 2.25 0 0 1 18.75 21h-3.5A2.25 2.25 0 0 1 13 18.75v-3.5A2.25 2.25 0 0 1 15.25 13z" class="duoicon-secondary-layer" opacity=".3"/></svg></svg>